<svg width="167" height="193" viewBox="0 0 167 193" fill="none" xmlns="http://www.w3.org/2000/svg">
<path d="M121.962 132.241C136.884 147.24 152.778 181.086 155.148 193L162.259 190.617C156.333 176.321 132.629 137.006 126.703 122.71C120.777 108.414 120.777 91.7347 131.444 69.0988C142.111 46.4629 161.074 32.1667 167 22.6358C163.444 16.679 149.222 0 101.814 0C64.9963 0 42.554 16.679 49.6652 25.0184C56.2417 32.7308 60.3321 39.3148 72.1841 55.9938C57.5666 43.286 48.8275 33.322 42.554 28.5925C33.0724 21.4443 14.7683 47.8977 6.99767 69.0988C-1.2988 91.7344 -1.2986 122.71 2.25698 128.667C6.99767 128.667 40.1837 114.599 65.0727 115.562C89.9617 116.524 112.481 122.71 121.962 132.241Z" fill="#E1EEBD"/>
</svg>
