<svg width="191" height="169" viewBox="0 0 191 169" fill="none" xmlns="http://www.w3.org/2000/svg">
<path d="M74.4194 110.024C70.2419 136.113 14.5 176.5 0.499999 176.5L11 183C23.5 178 65.3044 140.086 78 123C90.6956 105.914 119.96 112.207 137.114 118.189C154.268 124.171 172.388 136.113 178.871 136.113C185.682 136.113 194.878 98.8966 188.948 77.5514C178.034 38.2631 149.927 22.1536 141.964 22.1536C133.701 22.1536 126.148 47.3911 115.915 61.7015C122.345 46.4405 134.203 22.959 131.887 18.1608C129.225 12.6469 110.688 0.174075 74.4194 0.47829C39.8182 0.768521 15.9233 26.9382 16.6654 31.6603C18.0105 40.2189 42.2591 48.839 52.6924 58.7034C63.1257 68.5678 77.4757 90.938 74.4194 110.024Z" fill="#E1EEBD"/>
</svg>
