<svg width="390" height="180" viewBox="0 0 390 180" fill="none" xmlns="http://www.w3.org/2000/svg">
<path d="M389.5 90C389.5 114.543 368.147 136.918 333.26 153.186C298.414 169.436 250.239 179.5 197 179.5C143.761 179.5 95.5859 169.436 60.7397 153.186C25.8528 136.918 4.5 114.543 4.5 90C4.5 65.457 25.8528 43.0821 60.7397 26.8135C95.5859 10.564 143.761 0.5 197 0.5C250.239 0.5 298.414 10.564 333.26 26.8135C368.147 43.0821 389.5 65.457 389.5 90Z" fill="#C5C5A9" fill-opacity="0.9" stroke="#C4C4C4"/>
<g filter="url(#filter0_f)">
<path d="M122.743 41.2865C92.2266 72.057 13.844 90.9164 4 90.9164C36.4031 102.29 106.746 130 185.498 130C254.406 130 335.004 95.0522 351 86.5738C339.105 80.1633 274.094 70.4441 238.41 41.2865C196.506 7.0469 160.888 2.82334 122.743 41.2865Z" fill="#C5C5A9"/>
</g>
<defs>
<filter id="filter0_f" x="0" y="10" width="355" height="124" filterUnits="userSpaceOnUse" color-interpolation-filters="sRGB">
<feFlood flood-opacity="0" result="BackgroundImageFix"/>
<feBlend mode="normal" in="SourceGraphic" in2="BackgroundImageFix" result="shape"/>
<feGaussianBlur stdDeviation="2" result="effect1_foregroundBlur"/>
</filter>
</defs>
</svg>
