<svg width="549" height="666" viewBox="0 0 549 666" fill="none" xmlns="http://www.w3.org/2000/svg">
<g filter="url(#filter0_i)">
<path d="M9.93979 356.577C30.4396 484.077 108.941 635.077 126.441 652.577C143.941 670.077 575.44 670.077 547.44 652.577C519.44 635.077 326.94 550.577 220.44 377.577C113.941 204.577 101.441 37.5766 95.9406 15.5765C90.4406 -6.4236 13.4403 -3.92321 9.93998 15.5767C6.43964 35.0766 -10.56 229.077 9.93979 356.577Z" fill="#C0FFFF" fill-opacity="0.2"/>
</g>
<circle cx="62.9404" cy="49.5767" r="17.5" fill="#FFC0C0"/>
<circle cx="44.9404" cy="86.5767" r="17.5" fill="#FFC0C0"/>
<circle cx="73.9404" cy="109.577" r="17.5" fill="#FFC0C0"/>
<ellipse cx="410.44" cy="614.577" rx="18" ry="17.5" fill="#FFC0C0"/>
<ellipse cx="226.44" cy="574.577" rx="18" ry="17.5" fill="#FFC0C0"/>
<ellipse cx="350.44" cy="592.577" rx="18" ry="17.5" fill="#FFC0C0"/>
<ellipse cx="49.4404" cy="154.577" rx="18" ry="17.5" fill="#FFC0C0"/>
<circle cx="55.9404" cy="239.577" r="17.5" fill="#FFC0C0"/>
<circle cx="85.9404" cy="184.577" r="17.5" fill="#FFC0C0"/>
<circle cx="84.9404" cy="337.577" r="17.5" fill="#FFC0C0"/>
<circle cx="95.4404" cy="272.077" r="18" fill="#FFC0C0"/>
<ellipse cx="113.44" cy="401.577" rx="18" ry="17.5" fill="#FFC0C0"/>
<ellipse cx="98.4404" cy="469.577" rx="18" ry="17.5" fill="#FFC0C0"/>
<ellipse cx="173.44" cy="424.577" rx="18" ry="17.5" fill="#A42121"/>
<circle cx="274.44" cy="549.077" r="18" fill="#FFC0C0"/>
<circle cx="148.94" cy="528.577" r="17.5" fill="#FFC0C0"/>
<ellipse cx="208.94" cy="501.077" rx="17.5" ry="18" fill="#FFC0C0"/>
<circle cx="148.94" cy="596.577" r="17.5" fill="#FFC0C0"/>
<circle cx="137.94" cy="359.577" r="17.5" fill="#FFC0C0"/>
<defs>
<filter id="filter0_i" x="0" y="0" width="648.746" height="665.702" filterUnits="userSpaceOnUse" color-interpolation-filters="sRGB">
<feFlood flood-opacity="0" result="BackgroundImageFix"/>
<feBlend mode="normal" in="SourceGraphic" in2="BackgroundImageFix" result="shape"/>
<feColorMatrix in="SourceAlpha" type="matrix" values="0 0 0 0 0 0 0 0 0 0 0 0 0 0 0 0 0 0 127 0" result="hardAlpha"/>
<feOffset dx="100"/>
<feGaussianBlur stdDeviation="50"/>
<feComposite in2="hardAlpha" operator="arithmetic" k2="-1" k3="1"/>
<feColorMatrix type="matrix" values="0 0 0 0 0.784314 0 0 0 0 0.933333 0 0 0 0 0.980392 0 0 0 0.2 0"/>
<feBlend mode="normal" in2="shape" result="effect1_innerShadow"/>
</filter>
</defs>
</svg>
