<svg xmlns="http://www.w3.org/2000/svg" xmlns:xlink="http://www.w3.org/1999/xlink" viewBox="0 0 415.1 317.28"><defs><style>.cls-1,.cls-11,.cls-16,.cls-17,.cls-7{fill:none;}.cls-15,.cls-2{fill:#fff;}.cls-3{fill:#4a9463;}.cls-3,.cls-4,.cls-5,.cls-6{fill-rule:evenodd;}.cls-4{fill:#356738;}.cls-5{fill:#accc97;}.cls-6{fill:#2f6737;}.cls-11,.cls-15,.cls-16,.cls-17,.cls-7{stroke:#000;}.cls-11,.cls-13,.cls-14,.cls-15,.cls-16,.cls-17,.cls-7{stroke-miterlimit:10;}.cls-7{stroke-width:3px;}.cls-8{font-size:16.22px;letter-spacing:0.2em;}.cls-10,.cls-8,.cls-9{font-family:MidashiMinPr6N-MA31-83pv-RKSJ-H, A-OTF Midashi Mi MA31 Pr6N;}.cls-9{font-size:15.37px;}.cls-10{font-size:7.68px;}.cls-11{stroke-width:6px;}.cls-12{clip-path:url(#clip-path);}.cls-13,.cls-14{stroke:#fff;}.cls-13,.cls-15{stroke-width:1.62px;}.cls-14{stroke-width:1.6px;}.cls-16{stroke-width:4px;}.cls-17{stroke-width:2px;}</style><clipPath id="clip-path"><circle class="cls-1" cx="158.5" cy="158.92" r="149.5"/></clipPath></defs><g id="レイヤー_2" data-name="レイヤー 2"><g id="レイヤー_1-2" data-name="レイヤー 1"><circle class="cls-2" cx="158.64" cy="158.64" r="155.64"/><path class="cls-3" d="M240,149.51a30,30,0,0,0,5.08,5.06,3.46,3.46,0,0,0-.75.9l-3.94,6.76a3.48,3.48,0,0,0,1.26,4.75l1.89,1.1a3.49,3.49,0,0,0,4.75-1.27l3.94-6.78a3.28,3.28,0,0,0,.42-1.18,30.87,30.87,0,0,0,5.41,1.53,3.58,3.58,0,0,0-.3,1.4l0,7.83a3.49,3.49,0,0,0,3.47,3.48h2.2a3.48,3.48,0,0,0,3.49-3.47l0-7.84a3.34,3.34,0,0,0-.18-1.1,29.7,29.7,0,0,0,6.7-1.54,3.25,3.25,0,0,0,.4,1.1l3.91,6.78a3.48,3.48,0,0,0,4.77,1.28l1.91-1.1a3.45,3.45,0,0,0,1.28-4.75l-3.92-6.78a3.25,3.25,0,0,0-.51-.69,30.6,30.6,0,0,0,5.32-5,3.59,3.59,0,0,0,1.13,1.06l6.81,3.91a3.51,3.51,0,0,0,4.78-1.27l1.09-1.9a3.46,3.46,0,0,0-1.27-4.75l-6.81-3.91a3.69,3.69,0,0,0-1.31-.44,29,29,0,0,0,2-6.56,3.54,3.54,0,0,0,1.19.21l7.85,0a3.48,3.48,0,0,0,3.49-3.47v-2.19a3.47,3.47,0,0,0-3.49-3.46h-7.85a3.27,3.27,0,0,0-1,.14,30.35,30.35,0,0,0-1.74-6.93,4,4,0,0,0,1-.37l6.78-3.92a3.44,3.44,0,0,0,1.28-4.72l-1.11-1.89a3.48,3.48,0,0,0-4.74-1.25l-6.79,3.91a3,3,0,0,0-.74.58,29,29,0,0,0-5.21-5.17,3.45,3.45,0,0,0,1-1.1l3.92-6.73A3.43,3.43,0,0,0,285.56,95l-1.9-1.08a3.51,3.51,0,0,0-4.74,1.28L275,102a3.56,3.56,0,0,0-.46,1.46,29.81,29.81,0,0,0-7.9-1.91,3.5,3.5,0,0,0,.31-1.41l0-7.74a3.41,3.41,0,0,0-3.45-3.42h-2.19a3.48,3.48,0,0,0-3.47,3.44l0,7.74a3.44,3.44,0,0,0,.45,1.71,29.89,29.89,0,0,0-6,1.74,3.6,3.6,0,0,0-.35-.87L248.12,96a3.44,3.44,0,0,0-4.72-1.24l-1.89,1.09a3.44,3.44,0,0,0-1.28,4.69l3.85,6.7a3.45,3.45,0,0,0,.65.81,29.09,29.09,0,0,0-5.13,5.34,3.34,3.34,0,0,0-1.26-1.24l-6.7-3.85a3.47,3.47,0,0,0-4.72,1.26l-1.11,1.89a3.44,3.44,0,0,0,1.24,4.7l6.71,3.86a3.58,3.58,0,0,0,1.92.45,30.29,30.29,0,0,0-1.86,7.73,3.27,3.27,0,0,0-1.22-.22h-7.77a3.48,3.48,0,0,0-3.47,3.46l0,2.18a3.42,3.42,0,0,0,3.43,3.44h7.79a3.48,3.48,0,0,0,1.61-.39,28.57,28.57,0,0,0,1.55,5.38,3.7,3.7,0,0,0-1.27.44l-6.76,3.9a3.45,3.45,0,0,0-1.3,4.72l1.08,1.9a3.45,3.45,0,0,0,4.72,1.26l6.78-3.89A3.75,3.75,0,0,0,240,149.51Zm8.13-9.23a17.59,17.59,0,1,1,24,6.4A17.52,17.52,0,0,1,248.11,140.28Z"/><path class="cls-4" d="M58.31,98.93C78.11,58.36,91.85,44.46,95.91,39s15.54-15.5,28.72-15.24S154.07,35.4,155.56,36.5s15.16,9.64,19.27,20.7.71,23.85-9.45,38.33c-10.44,14.9-22.47,26.32-26.95,32.59-3.31,4.63-6.52,12.55-9.66,31.08s-7.71,33-16.16,40.61c-7.56,6.84-20.23,10.93-39.75,6.28s-26.58-15.26-30-25.34C39,169.06,38.52,139.51,58.31,98.93Z"/><path class="cls-5" d="M66.93,100.27c18.52-36.58,29.5-48.66,33.35-53.15,4.9-5.73,12.07-13.82,23.16-13.7s24.61,9.47,25.86,10.41,13.51,8.23,16.88,17.88-1,20.63-9.94,33.19c-9.44,13.29-20.21,23.44-24,29-2.82,4.08-6.94,11.56-9.72,27.8S115.14,185.84,108,192.6c-6.42,6-16.26,9.8-32.66,5.89s-22.27-13.16-25-22C47.07,166.34,49.09,135.5,66.93,100.27Z"/><path class="cls-6" d="M114.57,73.45a17.54,17.54,0,0,0,.81,4.4,2,2,0,0,0-.71.2l-4.43,2a2.15,2.15,0,0,0-1,2.87l.58,1.24a2.2,2.2,0,0,0,2.89,1.06l4.43-2a2,2,0,0,0,.63-.44A20.73,20.73,0,0,0,120,85.46a2.49,2.49,0,0,0-.65.61l-2.79,4a2.16,2.16,0,0,0,.54,3l1.12.8a2.16,2.16,0,0,0,3-.51l2.81-4a2.7,2.7,0,0,0,.31-.61,19.31,19.31,0,0,0,4,1.6,2.11,2.11,0,0,0-.17.72l-.41,4.84a2.16,2.16,0,0,0,2,2.33l1.37.14a2.16,2.16,0,0,0,2.36-1.95l.41-4.83a2.35,2.35,0,0,0,0-.54,19.26,19.26,0,0,0,4.52-.64,1.77,1.77,0,0,0,.21,1l2.07,4.41a2.18,2.18,0,0,0,2.87,1.08l1.25-.57a2.14,2.14,0,0,0,1-2.87L143.67,89a2.07,2.07,0,0,0-.51-.69,17,17,0,0,0,3.36-2.63,2.18,2.18,0,0,0,.52.53l4,2.83a2.18,2.18,0,0,0,3-.51l.79-1.13a2.12,2.12,0,0,0-.53-3l-4-2.83a2.51,2.51,0,0,0-.54-.28,18.67,18.67,0,0,0,1.58-4.13,2.14,2.14,0,0,0,.65.16l4.87.45a2.14,2.14,0,0,0,2.35-2l.11-1.35a2.17,2.17,0,0,0-2-2.34l-4.86-.46a1.65,1.65,0,0,0-.59,0,20,20,0,0,0-.8-4.52A2,2,0,0,0,152,67l4.44-2a2.16,2.16,0,0,0,1.05-2.85l-.6-1.26A2.2,2.2,0,0,0,154,59.84l-4.43,2a2,2,0,0,0-.75.58,19.19,19.19,0,0,0-3.36-3.84,2.37,2.37,0,0,0,.66-.61l2.79-4a2.15,2.15,0,0,0-.53-3l-1.14-.79a2.16,2.16,0,0,0-3,.51l-2.8,3.95a2.08,2.08,0,0,0-.37,1,19.08,19.08,0,0,0-3.69-1.25,3.12,3.12,0,0,0,.13-.59l.41-4.81a2.2,2.2,0,0,0-2-2.37l-1.37-.11a2.14,2.14,0,0,0-2.35,1.93l-.41,4.83a2.35,2.35,0,0,0,0,.65,18.39,18.39,0,0,0-4.57.87,2,2,0,0,0-.19-1.09L125,49.39a2.2,2.2,0,0,0-2.89-1.06l-1.24.57a2.12,2.12,0,0,0-1,2.85l2.07,4.41a2.1,2.1,0,0,0,.81.93,18.6,18.6,0,0,0-3.7,3.28,2.06,2.06,0,0,0-.55-.55l-4-2.83a2.2,2.2,0,0,0-3,.51l-.79,1.12a2.13,2.13,0,0,0,.54,3l4,2.83a2.26,2.26,0,0,0,1,.37,17.42,17.42,0,0,0-1.12,3.31,3.52,3.52,0,0,0-.82-.25l-4.87-.44A2.14,2.14,0,0,0,107,69.38l-.13,1.34a2.17,2.17,0,0,0,2,2.34l4.88.47A2.08,2.08,0,0,0,114.57,73.45Z"/><path class="cls-3" d="M122,71.67a10.87,10.87,0,0,1,11.9-9.81,11,11,0,0,1,10,11.89,10.82,10.82,0,0,1-11.88,9.82A11.06,11.06,0,0,1,122,71.67Z"/><path class="cls-6" d="M84.53,87.4a10,10,0,0,1,9.84-10.28,10.22,10.22,0,0,1,10.43,10,10,10,0,0,1-10,10.07A10.24,10.24,0,0,1,84.53,87.4Z"/><path class="cls-6" d="M105,85.71l2.72,0a1.17,1.17,0,0,1,1.19,1.17v.74a1.21,1.21,0,0,1-1.18,1.2l-2.68,0a1.19,1.19,0,0,1-1.21-1.17l0-.74A1.2,1.2,0,0,1,105,85.71Z"/><path class="cls-6" d="M81.53,85.91l2.6,0A1.2,1.2,0,0,1,85.34,87l0,.74a1.12,1.12,0,0,1-1.13,1.17l-2.6,0a1.21,1.21,0,0,1-1.2-1.15l0-.72A1.12,1.12,0,0,1,81.53,85.91Z"/><path class="cls-6" d="M96,97.42l0,2.58a1.13,1.13,0,0,1-1.12,1.15h-.75A1.21,1.21,0,0,1,93,100l-.07-2.55a1.17,1.17,0,0,1,1.15-1.17h.73A1.19,1.19,0,0,1,96,97.42Z"/><path class="cls-6" d="M95.76,74.18l0,2.7a1.2,1.2,0,0,1-1.16,1.21l-.75,0a1.21,1.21,0,0,1-1.21-1.17l-.08-2.71A1.21,1.21,0,0,1,93.79,73h.75A1.2,1.2,0,0,1,95.76,74.18Z"/><path class="cls-6" d="M83.57,80l2.31,1.29a1.18,1.18,0,0,1,.49,1.6L86,83.5a1.15,1.15,0,0,1-1.57.46l-2.32-1.28a1.18,1.18,0,0,1-.49-1.59l.34-.66A1.16,1.16,0,0,1,83.57,80Z"/><path class="cls-6" d="M88.75,75.16l1.41,2.29a1.2,1.2,0,0,1-.39,1.64l-.63.38a1.19,1.19,0,0,1-1.64-.4l-1.38-2.3a1.16,1.16,0,0,1,.37-1.61l.65-.4A1.18,1.18,0,0,1,88.75,75.16Z"/><path class="cls-6" d="M101.17,95.53l1.36,2.23a1.14,1.14,0,0,1-.4,1.57l-.64.37a1.23,1.23,0,0,1-1.62-.41l-1.36-2.23a1.14,1.14,0,0,1,.41-1.57l.64-.37A1.2,1.2,0,0,1,101.17,95.53Z"/><path class="cls-6" d="M86.64,93.87l-2.22,1.31a1.17,1.17,0,0,1-1.59-.41l-.38-.62a1.12,1.12,0,0,1,.36-1.56L85,91.27a1.18,1.18,0,0,1,1.59.41l.41.62A1.12,1.12,0,0,1,86.64,93.87Z"/><path class="cls-6" d="M106.82,81.81l-2.31,1.38a1.25,1.25,0,0,1-1.66-.4l-.38-.66a1.17,1.17,0,0,1,.42-1.61l2.32-1.4a1.22,1.22,0,0,1,1.65.42l.38.64A1.18,1.18,0,0,1,106.82,81.81Z"/><path class="cls-6" d="M104.36,91.2l2.33,1.29a1.13,1.13,0,0,1,.45,1.57l-.37.64a1.19,1.19,0,0,1-1.61.45l-2.32-1.28a1.17,1.17,0,0,1-.46-1.59l.36-.63A1.2,1.2,0,0,1,104.36,91.2Z"/><path class="cls-6" d="M102.08,76.24l-1.33,2.36a1.21,1.21,0,0,1-1.61.47l-.67-.38A1.18,1.18,0,0,1,98,77.08l1.31-2.37a1.2,1.2,0,0,1,1.62-.48l.67.37A1.2,1.2,0,0,1,102.08,76.24Z"/><path class="cls-6" d="M90.66,96.77,89.43,99a1.16,1.16,0,0,1-1.57.41l-.64-.36a1.14,1.14,0,0,1-.48-1.54L88,95.28a1.17,1.17,0,0,1,1.58-.44l.64.37A1.13,1.13,0,0,1,90.66,96.77Z"/><path class="cls-3" d="M88.54,87.46a5.87,5.87,0,0,1,5.82-6,6,6,0,0,1,6.11,5.87,5.86,5.86,0,0,1-5.84,5.94A6,6,0,0,1,88.54,87.46Z"/><circle class="cls-7" cx="158.49" cy="158.93" r="149.5"/><rect class="cls-2" x="23.49" y="142.93" width="140" height="73"/><text class="cls-8" transform="translate(32.41 170.04) scale(1 0.9)">東京大学</text><text class="cls-9" transform="translate(32.41 189.15) scale(1 0.9)">iGEM UTokyo</text><text class="cls-10" transform="translate(32.41 204.56) scale(1 0.9)">iGEM team from<tspan x="0" y="8.54">The University of Tokyo</tspan></text><circle class="cls-11" cx="158.64" cy="158.64" r="155.64"/><g class="cls-12"><rect class="cls-13" x="189.71" y="82.78" width="14.56" height="166.66"/><rect class="cls-13" x="242.68" y="82.78" width="14.56" height="166.66"/><rect class="cls-13" x="205.68" y="92.49" width="35.6" height="158.57"/><rect class="cls-13" x="214.04" y="82.78" width="3.24" height="12.94"/><rect class="cls-13" x="221.86" y="82.78" width="3.24" height="12.94"/><rect class="cls-13" x="229.68" y="82.78" width="3.24" height="12.94"/><rect class="cls-13" x="250.45" y="247.83" width="16.18" height="63.1"/><rect class="cls-13" x="180.32" y="247.83" width="16.18" height="63.1"/><rect class="cls-13" x="198.4" y="249.44" width="50.16" height="61.49"/><path class="cls-2" d="M206.48,309.31V297.42c1.42-16.65,14.51-26,17-27.61,2.49,1.63,15.58,11,17,27.67v11.83Z"/><path d="M223.48,270.77c3.2,2.21,14.85,11.22,16.19,26.71v11H207.28v-11c1.35-15.49,13-24.5,16.2-26.71m0-1.91s-16.18,9.52-17.8,28.56v12.69h35.6V297.42c-1.62-19-17.8-28.56-17.8-28.56Z"/><rect class="cls-13" x="221.05" y="215.81" width="4.85" height="19.42"/><rect class="cls-13" x="211.61" y="215.81" width="4.85" height="19.42"/><rect class="cls-13" x="230.49" y="215.81" width="4.85" height="19.42"/><rect class="cls-13" x="221.05" y="183.44" width="4.85" height="19.42"/><rect class="cls-13" x="211.61" y="183.44" width="4.85" height="19.42"/><rect class="cls-13" x="230.49" y="183.44" width="4.85" height="19.42"/><rect class="cls-14" x="216.2" y="97.33" width="4.85" height="45.66"/><rect class="cls-13" x="216.2" y="154.32" width="4.85" height="11.33"/><rect class="cls-13" x="225.9" y="154.32" width="4.85" height="11.33"/><rect class="cls-14" x="225.9" y="97.33" width="4.85" height="45.66"/><rect class="cls-13" x="152.4" y="186.34" width="33.98" height="3.24"/><rect class="cls-13" x="150.78" y="192.81" width="35.6" height="118.12"/><rect class="cls-13" x="82.83" y="220.32" width="66.34" height="4.85"/><rect class="cls-13" x="82.83" y="226.79" width="66.34" height="80.9"/><rect class="cls-13" x="32.67" y="225.17" width="48.54" height="4.49"/><rect class="cls-13" x="32.67" y="231.17" width="48.54" height="74.91"/><rect class="cls-15" x="54.71" y="246.55" width="4.45" height="17.8"/><rect class="cls-15" x="46.06" y="246.55" width="4.45" height="17.8"/><rect class="cls-15" x="63.37" y="246.55" width="4.45" height="17.8"/><rect class="cls-15" x="54.71" y="277.29" width="4.45" height="17.8"/><rect class="cls-15" x="46.06" y="277.29" width="4.45" height="17.8"/><rect class="cls-15" x="63.37" y="277.29" width="4.45" height="17.8"/><rect class="cls-15" x="167.58" y="247.36" width="4.45" height="17.8"/><rect class="cls-15" x="158.92" y="247.36" width="4.45" height="17.8"/><rect class="cls-15" x="167.58" y="215.81" width="4.45" height="17.8"/><rect class="cls-15" x="158.92" y="215.81" width="4.45" height="17.8"/><rect class="cls-15" x="176.23" y="215.81" width="4.45" height="17.8"/><rect class="cls-15" x="167.58" y="278.92" width="4.45" height="17.8"/><rect class="cls-15" x="158.92" y="278.92" width="4.45" height="17.8"/><rect class="cls-15" x="99.62" y="275.67" width="4.45" height="17.8"/><rect class="cls-15" x="90.96" y="275.67" width="4.45" height="17.8"/><rect class="cls-15" x="108.27" y="275.67" width="4.45" height="17.8"/><rect class="cls-15" x="99.62" y="240.08" width="4.45" height="29.13"/><rect class="cls-15" x="90.96" y="240.08" width="4.45" height="29.13"/><rect class="cls-15" x="108.27" y="240.08" width="4.45" height="29.13"/><rect class="cls-15" x="122.72" y="240.08" width="4.85" height="37.22"/><rect class="cls-15" x="130.79" y="240.08" width="4.85" height="37.22"/><rect class="cls-15" x="138.85" y="240.08" width="4.85" height="37.22"/><rect class="cls-13" x="215.36" y="103.13" width="16.24" height="16.24" transform="translate(-13.21 190.61) rotate(-45)"/><circle class="cls-13" cx="223.48" cy="111.25" r="7.28"/><rect class="cls-13" x="260.57" y="186.34" width="33.98" height="3.24" transform="translate(555.12 375.91) rotate(-180)"/><rect class="cls-13" x="260.57" y="192.81" width="35.6" height="118.12" transform="translate(556.74 503.74) rotate(-180)"/><rect class="cls-13" x="297.79" y="220.32" width="66.34" height="4.85" transform="translate(661.91 445.49) rotate(-180)"/><rect class="cls-13" x="297.79" y="226.79" width="66.34" height="80.9" transform="translate(661.91 534.48) rotate(-180)"/><rect class="cls-13" x="365.75" y="225.17" width="48.54" height="4.49" transform="translate(780.03 454.84) rotate(-180)"/><rect class="cls-13" x="365.75" y="231.17" width="48.54" height="74.91" transform="translate(780.03 537.24) rotate(-180)"/><rect class="cls-15" x="387.79" y="246.55" width="4.45" height="17.8" transform="translate(780.03 510.9) rotate(-180)"/><rect class="cls-15" x="396.45" y="246.55" width="4.45" height="17.8" transform="translate(797.34 510.9) rotate(-180)"/><rect class="cls-15" x="379.14" y="246.55" width="4.45" height="17.8" transform="translate(762.73 510.9) rotate(-180)"/><rect class="cls-15" x="387.79" y="277.29" width="4.45" height="17.8" transform="translate(780.03 572.38) rotate(-180)"/><rect class="cls-15" x="396.45" y="277.29" width="4.45" height="17.8" transform="translate(797.34 572.38) rotate(-180)"/><rect class="cls-15" x="379.14" y="277.29" width="4.45" height="17.8" transform="translate(762.73 572.38) rotate(-180)"/><rect class="cls-15" x="274.93" y="247.36" width="4.45" height="17.8" transform="translate(554.3 512.53) rotate(-180)"/><rect class="cls-15" x="283.58" y="247.36" width="4.45" height="17.8" transform="translate(571.61 512.53) rotate(-180)"/><rect class="cls-15" x="274.93" y="215.81" width="4.45" height="17.8" transform="translate(554.3 449.41) rotate(-180)"/><rect class="cls-15" x="283.58" y="215.81" width="4.45" height="17.8" transform="translate(571.61 449.41) rotate(-180)"/><rect class="cls-15" x="266.27" y="215.81" width="4.45" height="17.8" transform="translate(536.99 449.41) rotate(-180)"/><rect class="cls-15" x="274.93" y="278.92" width="4.45" height="17.8" transform="translate(554.3 575.65) rotate(-180)"/><rect class="cls-15" x="283.58" y="278.92" width="4.45" height="17.8" transform="translate(571.61 575.65) rotate(-180)"/><rect class="cls-15" x="342.89" y="275.67" width="4.45" height="17.8" transform="translate(690.22 569.15) rotate(-180)"/><rect class="cls-15" x="351.54" y="275.67" width="4.45" height="17.8" transform="translate(707.53 569.15) rotate(-180)"/><rect class="cls-15" x="334.23" y="275.67" width="4.45" height="17.8" transform="translate(672.91 569.15) rotate(-180)"/><rect class="cls-15" x="342.89" y="240.08" width="4.45" height="29.13" transform="translate(690.22 509.28) rotate(-180)"/><rect class="cls-15" x="351.54" y="240.08" width="4.45" height="29.13" transform="translate(707.53 509.28) rotate(-180)"/><rect class="cls-15" x="334.23" y="240.08" width="4.45" height="29.13" transform="translate(672.91 509.28) rotate(-180)"/><rect class="cls-15" x="319.38" y="240.08" width="4.85" height="37.22" transform="translate(643.6 517.37) rotate(-180)"/><rect class="cls-15" x="311.31" y="240.08" width="4.85" height="37.22" transform="translate(627.47 517.37) rotate(-180)"/><rect class="cls-15" x="303.25" y="240.08" width="4.85" height="37.22" transform="translate(611.35 517.37) rotate(-180)"/></g><line class="cls-16" x1="10.49" y1="140.93" x2="195.49" y2="140.93"/><line class="cls-17" x1="9.49" y1="145.93" x2="194.49" y2="145.93"/></g></g></svg>