<svg width="120" height="65" viewBox="0 0 120 65" fill="none" xmlns="http://www.w3.org/2000/svg">
<path d="M10.6519 30.4807V13.8213C10.6519 12.0189 12.1682 10.5878 13.9676 10.692L66.2095 13.7176C67.3937 13.7862 68.5563 14.0649 69.6429 14.5408L106.018 30.4707C108.833 31.7035 110.652 34.4855 110.652 37.5587V46.1594C110.652 50.1378 108.294 53.7377 104.646 55.3269L88.7596 62.2493C86.441 63.2596 83.8257 63.3538 81.4404 62.5129L17.3272 39.9118C13.3273 38.5018 10.6519 34.7219 10.6519 30.4807Z" fill="white" stroke="black" stroke-width="3"/>
<path d="M116.389 36.8776L92.4211 46.0417C90.1182 46.9222 87.0261 42.9228 85.1518 41.3211C61.3538 22.3576 44.839 17.0323 11.3444 15.8609C10.5678 15.8338 9.78443 15.9907 9.07895 16.3163L4.62043 18.3741C3.98226 18.6686 3.28778 18.8211 2.58492 18.8211C1.64942 18.8211 0.578229 18.6413 0.169614 17.7998C-1.03498 15.3189 3.77345 10.5752 27.6482 1.81676C27.9755 1.69668 28.3334 1.60644 28.6787 1.55829C67.278 -3.82367 86.6187 4.55349 117.554 29.5255C118.56 30.3371 119.152 31.571 119.152 32.863C119.152 34.6445 118.053 36.2413 116.389 36.8776Z" fill="#D14A4A"/>
</svg>
